<?xml version="1.0" encoding="UTF-8" standalone="no"?><!DOCTYPE svg PUBLIC "-//W3C//DTD SVG 1.1//EN" "http://www.w3.org/Graphics/SVG/1.1/DTD/svg11.dtd"><svg width="100%" height="100%" viewBox="0 0 103 101" version="1.1" xmlns="http://www.w3.org/2000/svg" xmlns:xlink="http://www.w3.org/1999/xlink" xml:space="preserve" xmlns:serif="http://www.serif.com/" style="fill-rule:evenodd;clip-rule:evenodd;stroke-linejoin:round;stroke-miterlimit:1.41421;"><g id="gitlab-logo"><path d="M51.361,0.181c-28.31,0 -51.266,22.952 -51.266,51.267c0,22.65 14.689,41.866 35.059,48.645c2.562,0.475 3.503,-1.112 3.503,-2.466c0,-1.222 -0.048,-5.261 -0.07,-9.545c-14.262,3.102 -17.272,-6.048 -17.272,-6.048c-2.332,-5.925 -5.692,-7.502 -5.692,-7.502c-4.651,-3.182 0.351,-3.116 0.351,-3.116c5.148,0.362 7.858,5.284 7.858,5.284c4.573,7.836 11.993,5.57 14.919,4.261c0.46,-3.313 1.789,-5.575 3.255,-6.856c-11.387,-1.295 -23.357,-5.692 -23.357,-25.336c0,-5.596 2.002,-10.17 5.282,-13.76c-0.533,-1.292 -2.287,-6.506 0.496,-13.567c0,0 4.305,-1.377 14.102,5.255c4.09,-1.135 8.475,-1.705 12.832,-1.725c4.357,0.02 8.746,0.59 12.843,1.725c9.785,-6.632 14.084,-5.255 14.084,-5.255c2.791,7.061 1.035,12.275 0.503,13.567c3.287,3.59 5.276,8.164 5.276,13.76c0,19.692 -11.993,24.026 -23.409,25.296c1.839,1.59 3.477,4.71 3.477,9.493c0,6.86 -0.059,12.381 -0.059,14.069c0,1.364 0.923,2.963 3.521,2.46c20.359,-6.787 35.03,-25.996 35.03,-48.639c0,-28.315 -22.953,-51.267 -51.266,-51.267Z" style="fill:#181717;"/><path d="M19.512,73.788c-0.113,0.255 -0.514,0.332 -0.879,0.157c-0.372,-0.168 -0.58,-0.515 -0.46,-0.771c0.111,-0.261 0.512,-0.334 0.883,-0.16c0.373,0.168 0.585,0.518 0.456,0.774Z" style="fill:#181717;fill-rule:nonzero;"/><path d="M21.588,76.105c-0.244,0.225 -0.722,0.12 -1.046,-0.238c-0.336,-0.358 -0.398,-0.835 -0.151,-1.066c0.253,-0.225 0.716,-0.119 1.052,0.238c0.336,0.362 0.401,0.836 0.145,1.066Z" style="fill:#181717;fill-rule:nonzero;"/><path d="M23.61,79.056c-0.314,0.219 -0.828,0.015 -1.145,-0.441c-0.315,-0.456 -0.315,-1.004 0.006,-1.223c0.319,-0.219 0.825,-0.021 1.146,0.431c0.314,0.463 0.314,1.01 -0.007,1.233Z" style="fill:#181717;fill-rule:nonzero;"/><path d="M26.379,81.909c-0.281,0.31 -0.879,0.227 -1.317,-0.196c-0.449,-0.414 -0.574,-1 -0.292,-1.31c0.285,-0.311 0.887,-0.223 1.328,0.196c0.445,0.413 0.581,1.003 0.281,1.31Z" style="fill:#181717;fill-rule:nonzero;"/><path d="M30.199,83.565c-0.124,0.402 -0.7,0.584 -1.281,0.414c-0.58,-0.176 -0.959,-0.646 -0.842,-1.052c0.121,-0.404 0.7,-0.595 1.285,-0.412c0.579,0.175 0.959,0.642 0.838,1.05Z" style="fill:#181717;fill-rule:nonzero;"/><path d="M34.395,83.872c0.014,0.423 -0.478,0.774 -1.088,0.782c-0.613,0.013 -1.108,-0.329 -1.115,-0.745c0,-0.427 0.481,-0.774 1.094,-0.784c0.61,-0.012 1.109,0.327 1.109,0.747Z" style="fill:#181717;fill-rule:nonzero;"/><path d="M38.299,83.208c0.073,0.412 -0.35,0.836 -0.956,0.949c-0.595,0.109 -1.146,-0.146 -1.221,-0.555c-0.074,-0.423 0.357,-0.847 0.951,-0.956c0.606,-0.106 1.149,0.142 1.226,0.562Z" style="fill:#181717;fill-rule:nonzero;"/></g></svg>