<?xml version="1.0" encoding="UTF-8" standalone="no"?><!DOCTYPE svg PUBLIC "-//W3C//DTD SVG 1.1//EN" "http://www.w3.org/Graphics/SVG/1.1/DTD/svg11.dtd"><svg width="100%" height="100%" viewBox="0 0 61 33" version="1.1" xmlns="http://www.w3.org/2000/svg" xmlns:xlink="http://www.w3.org/1999/xlink" xml:space="preserve" xmlns:serif="http://www.serif.com/" style="fill-rule:evenodd;clip-rule:evenodd;stroke-linejoin:round;stroke-miterlimit:1.41421;"><path id="naamio-logo" d="M0.725,7.387c0.286,-0.861 0.911,-1.689 2.266,-2.388c2.722,-1.404 10.016,-4.999 10.016,-4.999c0,0 9.451,2.5 12.481,2.5l9.998,0c3.03,0 12.525,-2.5 12.525,-2.5c0,0 7.249,3.595 9.972,4.999c1.353,0.698 1.978,1.525 2.265,2.385c-0.314,0.334 -0.685,0.602 -1.061,0.872l0.292,0.406c0.314,-0.225 0.63,-0.454 0.912,-0.714c0.126,0.691 0.092,1.391 0.092,2.051c0,12.495 -9.066,22.496 -14.998,22.496c-5.908,0 -12.072,-4.963 -14.706,-4.999l-0.562,0c-2.633,0.036 -8.82,4.999 -14.728,4.999c-5.932,0 -14.998,-9.924 -14.998,-22.496c0,-0.66 -0.034,-1.359 0.092,-2.05c0.281,0.258 0.595,0.489 0.908,0.713l0.291,-0.406c-0.372,-0.267 -0.747,-0.54 -1.057,-0.869Zm35.416,14.154c0.821,-0.634 2.672,-1.378 6.844,-1.544c4.089,-0.163 7.389,-4.089 7.499,-7.499c-4.171,-1.312 -6.311,-1.299 -7.499,-1.25c-1.188,0.049 -7.499,-0.645 -7.499,8.749l0,2.35l-0.212,1.171c-0.062,0.057 -0.1,0.138 -0.1,0.229c0,0.172 0.14,0.312 0.312,0.312c0.173,0 0.313,-0.14 0.313,-0.312c0,-0.051 -0.012,-0.098 -0.033,-0.14l0.375,-2.066Zm-10.653,0.806l0,-2.35c0,-9.394 -6.311,-8.7 -7.499,-8.749c-1.188,-0.049 -3.328,-0.062 -7.499,1.25c0.11,3.41 3.41,7.336 7.499,7.499c4.169,0.166 6.021,0.904 6.843,1.535l0.376,2.075c-0.021,0.042 -0.033,0.089 -0.033,0.14c0,0.172 0.14,0.312 0.313,0.312c0.172,0 0.312,-0.14 0.312,-0.312c0,-0.091 -0.038,-0.172 -0.1,-0.229l-0.212,-1.171Zm27.221,-10.345c-0.472,0.173 -0.947,0.337 -1.423,0.497l-0.159,-0.475c0.084,-0.028 0.168,-0.056 0.251,-0.084c0.385,-0.131 0.769,-0.266 1.152,-0.405c0,0 0.11,0.279 0.179,0.467Zm-44.269,-0.467c0.465,0.17 0.933,0.332 1.402,0.489l-0.158,0.475c-0.474,-0.159 -0.946,-0.323 -1.416,-0.494c0,0 0.12,-0.489 0.172,-0.47Zm47.066,-0.667c-0.433,0.195 -0.869,0.381 -1.308,0.56l-0.081,0.033l-0.187,-0.464c0.072,-0.029 0.145,-0.059 0.217,-0.089c0.348,-0.143 0.693,-0.29 1.036,-0.443l0.118,-0.053c0.068,0.152 0.137,0.304 0.205,0.456Zm-49.781,-0.43c0.431,0.192 0.866,0.377 1.305,0.555l-0.178,0.468c-0.427,-0.173 -0.849,-0.352 -1.269,-0.539l-0.119,-0.054l0.205,-0.456c0.019,0.009 0.038,0.017 0.056,0.026Zm52.474,-0.95c-0.423,0.249 -0.855,0.484 -1.293,0.708l-0.036,0.019l-0.227,-0.446c0.077,-0.039 0.154,-0.079 0.231,-0.119c0.339,-0.177 0.673,-0.361 1.003,-0.553l0.069,-0.04c0.084,0.143 0.169,0.287 0.253,0.431Zm-55.146,-0.414c0.418,0.244 0.843,0.475 1.274,0.695l-0.228,0.446c-0.439,-0.225 -0.873,-0.46 -1.299,-0.71l-0.03,-0.017l0.254,-0.431c0.01,0.005 0.019,0.011 0.029,0.017Z" style="fill:#fff;"/></svg>