<!-- Generated by IcoMoon.io -->
<svg version="1.1" xmlns="http://www.w3.org/2000/svg" width="32" height="32" viewBox="0 0 32 32">
<title>github</title>
<path fill="#16f0af" d="M15.999 1.37c-8.283 0-14.999 6.716-14.999 15.001 0 6.627 4.298 12.249 10.258 14.233 0.751 0.137 1.024-0.326 1.024-0.724 0-0.355-0.013-1.299-0.020-2.55-4.172 0.906-5.053-2.012-5.053-2.012-0.682-1.732-1.666-2.193-1.666-2.193-1.362-0.931 0.104-0.913 0.104-0.913 1.505 0.107 2.297 1.547 2.297 1.547 1.338 2.292 3.511 1.629 4.366 1.246 0.136-0.969 0.523-1.63 0.952-2.005-3.331-0.379-6.833-1.666-6.833-7.414 0-1.637 0.585-2.976 1.545-4.025-0.155-0.379-0.67-1.904 0.146-3.97 0 0 1.26-0.403 4.125 1.538 1.196-0.332 2.48-0.499 3.755-0.504 1.274 0.005 2.558 0.172 3.756 0.504 2.863-1.941 4.12-1.538 4.12-1.538 0.819 2.066 0.304 3.591 0.15 3.97 0.961 1.049 1.542 2.388 1.542 4.025 0 5.763-3.508 7.031-6.849 7.402 0.538 0.463 1.018 1.378 1.018 2.778 0 2.005-0.018 3.623-0.018 4.114 0 0.402 0.27 0.869 1.031 0.722 5.956-1.988 10.25-7.606 10.25-14.231 0-8.285-6.717-15.001-15.001-15.001z"></path>
</svg>
