<!-- Generated by IcoMoon.io -->
<svg version="1.1" xmlns="http://www.w3.org/2000/svg" width="32" height="32" viewBox="0 0 32 32">
<title>intelligent</title>
<path fill="#16f0af" opacity="0.3" d="M21.278 14.354c0 4.099-3.323 7.423-7.423 7.423s-7.423-3.323-7.423-7.423c0-4.099 3.323-7.423 7.423-7.423s7.423 3.323 7.423 7.423z"></path>
<path fill="#16f0af" opacity="0.4" d="M18.804 14.354c0 2.733-2.215 4.948-4.948 4.948s-4.948-2.215-4.948-4.948c0-2.733 2.216-4.948 4.948-4.948s4.948 2.216 4.948 4.948z"></path>
<path fill="#16f0af" d="M16.33 14.354c0 1.367-1.108 2.474-2.474 2.474s-2.474-1.108-2.474-2.474c0-1.367 1.108-2.474 2.474-2.474s2.474 1.108 2.474 2.474z"></path>
<path fill="#16f0af" opacity="0.3" d="M32 8.523c0 2.004-1.625 3.629-3.629 3.629s-3.629-1.625-3.629-3.629c0-2.004 1.625-3.629 3.629-3.629s3.629 1.625 3.629 3.629z"></path>
<path fill="#16f0af" opacity="0.4" d="M30.79 8.523c0 1.336-1.083 2.419-2.419 2.419s-2.419-1.083-2.419-2.419c0-1.336 1.083-2.419 2.419-2.419s2.419 1.083 2.419 2.419z"></path>
<path fill="#16f0af" d="M29.581 8.523c0 0.668-0.542 1.21-1.21 1.21s-1.21-0.542-1.21-1.21c0-0.668 0.542-1.21 1.21-1.21s1.21 0.542 1.21 1.21z"></path>
<path fill="#16f0af" opacity="0.3" d="M7.258 22.81c0 2.004-1.625 3.629-3.629 3.629s-3.629-1.625-3.629-3.629c0-2.004 1.625-3.629 3.629-3.629s3.629 1.625 3.629 3.629z"></path>
<path fill="#16f0af" opacity="0.4" d="M6.048 22.81c0 1.336-1.083 2.419-2.419 2.419s-2.419-1.083-2.419-2.419c0-1.336 1.083-2.419 2.419-2.419s2.419 1.083 2.419 2.419z"></path>
<path fill="#16f0af" d="M4.838 22.81c0 0.668-0.542 1.21-1.21 1.21s-1.21-0.542-1.21-1.21c0-0.668 0.542-1.21 1.21-1.21s1.21 0.542 1.21 1.21z"></path>
<path fill="#16f0af" opacity="0.3" d="M28.536 27.238c0 1.105-0.896 2.002-2.002 2.002s-2.002-0.896-2.002-2.002c0-1.105 0.896-2.002 2.002-2.002s2.002 0.896 2.002 2.002z"></path>
<path fill="#16f0af" opacity="0.4" d="M27.869 27.238c0 0.737-0.597 1.334-1.334 1.334s-1.334-0.597-1.334-1.334c0-0.737 0.597-1.334 1.334-1.334s1.334 0.597 1.334 1.334z"></path>
<path fill="#16f0af" d="M27.202 27.238c0 0.369-0.299 0.667-0.667 0.667s-0.667-0.299-0.667-0.667c0-0.369 0.299-0.667 0.667-0.667s0.667 0.299 0.667 0.667z"></path>
<path fill="#16f0af" opacity="0.3" d="M7.258 8.229c0 1.105-0.896 2.002-2.002 2.002s-2.002-0.896-2.002-2.002c0-1.105 0.896-2.002 2.002-2.002s2.002 0.896 2.002 2.002z"></path>
<path fill="#16f0af" opacity="0.4" d="M6.59 8.229c0 0.737-0.597 1.334-1.334 1.334s-1.334-0.597-1.334-1.334c0-0.737 0.597-1.334 1.334-1.334s1.334 0.597 1.334 1.334z"></path>
<path fill="#16f0af" d="M5.923 8.229c0 0.368-0.299 0.667-0.667 0.667s-0.667-0.299-0.667-0.667c0-0.369 0.299-0.667 0.667-0.667s0.667 0.299 0.667 0.667z"></path>
</svg>
