<!-- Generated by IcoMoon.io -->
<svg version="1.1" xmlns="http://www.w3.org/2000/svg" width="32" height="32" viewBox="0 0 32 32">
<title>isomorphic</title>
<path fill="#6200ea" opacity="0.2" d="M16 7.315l-5.973 3.449-5.973-3.449 5.973-3.449 5.973 3.449z"></path>
<path fill="#6200ea" opacity="0.4" d="M10.027 17.661v-6.897l5.973-3.449v6.897l-5.973 3.449z"></path>
<path fill="#6200ea" d="M10.027 17.661v-6.897l-5.973-3.449v6.897l5.973 3.449z"></path>
<path fill="#6200ea" opacity="0.2" d="M27.947 7.315l-5.973 3.449-5.973-3.449 5.973-3.449 5.973 3.449z"></path>
<path fill="#6200ea" opacity="0.4" d="M21.973 17.661v-6.897l5.973-3.449v6.897l-5.973 3.449z"></path>
<path fill="#6200ea" d="M21.973 17.661v-6.897l-5.973-3.449v6.897l5.973 3.449z"></path>
<path fill="#6200ea" opacity="0.2" d="M21.973 17.664l-5.973 3.449-5.973-3.449 5.973-3.449 5.973 3.449z"></path>
<path fill="#6200ea" opacity="0.4" d="M16 28.010v-6.897l5.973-3.449v6.897l-5.973 3.449z"></path>
<path fill="#6200ea" d="M16 28.010v-6.897l-5.973-3.449v6.897l5.973 3.449z"></path>
</svg>
