<?xml version="1.0" encoding="UTF-8" standalone="no"?>
<!DOCTYPE svg PUBLIC "-//W3C//DTD SVG 1.1//EN" "http://www.w3.org/Graphics/SVG/1.1/DTD/svg11.dtd">
<svg width="100%" height="100%" viewBox="0 0 1400 300" version="1.1" xmlns="http://www.w3.org/2000/svg" xmlns:xlink="http://www.w3.org/1999/xlink" xml:space="preserve" xmlns:serif="http://www.serif.com/" style="fill-rule:evenodd;clip-rule:evenodd;stroke-linejoin:round;stroke-miterlimit:1.41421;">
    <rect id="naamio-flow" x="0" y="0" width="1400" height="300" style="fill:none;"/>
    <clipPath id="_clip1">
        <rect x="0" y="0" width="1400" height="300"/>
    </clipPath>
    <g clip-path="url(#_clip1)">
        <g>
            <path d="M718.224,71.558C753.174,46.987 790.179,26.247 826.77,26.247C883.017,26.247 955.942,76.113 1020.11,112.751C1036.26,115.493 1050.67,124.829 1064.59,136.038C1069.9,138.454 1075.08,140.636 1080.13,142.536C1087.98,137.948 1095.6,134.269 1102.92,132.057C1117.38,121.149 1132.55,112.857 1149.81,112.271C1159.79,111.931 1171,113.72 1182.89,116.903C1210.92,92.292 1237.04,63.279 1263.77,63.247C1294.62,63.21 1316.02,97.376 1344.02,122.97C1367.29,125.862 1399.49,148.789 1401.19,150C1399.49,151.216 1367.02,174.563 1343.73,177.298C1315.87,202.861 1294.52,236.79 1263.77,236.753C1237.11,236.721 1211.05,207.848 1183.09,183.275C1171.12,186.492 1159.85,188.303 1149.81,187.962C1132.55,187.376 1117.38,179.084 1102.92,168.176C1095.53,165.941 1087.82,162.209 1079.89,157.555C1075.13,159.354 1070.24,161.404 1065.25,163.663C1050.96,175.24 1036.18,184.919 1019.53,187.576C955.508,224.183 882.85,273.753 826.77,273.753C790.297,273.753 753.412,253.146 718.562,228.68C682.795,228.233 651.416,204.102 624.743,170.291C622.312,167.209 619.729,164.016 617.007,160.748C605.02,166.749 593.321,172.42 582.029,177.039C550.302,207.245 511.762,233.557 476.743,231.582C452.612,230.221 426.059,208.475 399.259,183.764C399.108,183.775 398.956,183.784 398.804,183.793C380,184.924 360.307,178.292 340.012,169.315C327.883,178.427 316.052,185.362 304.743,188.343C296.369,190.551 288.004,191.181 279.638,190.673C266.509,196.633 254.155,200.112 243.53,197.902C231.022,195.301 220.174,184.495 210.182,171.045C201.734,170.997 192.575,170.706 182.964,170.226C174.071,183.324 165.257,193.822 155.77,196.51C134.509,202.534 113.204,178.35 92.861,162.451C44.251,157.006 -1.3,150 -1.3,150C-1.3,150 -1.735,150.001 -1.743,150L0.402,149.753C8.732,148.518 47.388,142.882 92.513,137.821C112.961,121.927 134.388,97.431 155.77,103.49C165.311,106.193 174.172,116.797 183.117,129.999C192.606,129.527 201.654,129.239 210.009,129.188C220.049,115.63 230.95,104.714 243.53,102.098C254.277,99.863 266.792,103.448 280.091,109.533C288.306,109.075 296.52,109.722 304.743,111.889C316.052,114.871 327.883,121.806 340.012,130.918C360.307,121.94 380,115.309 398.804,116.439C398.956,116.448 399.108,116.458 399.259,116.469C426.059,91.757 452.612,70.012 476.743,68.651C511.762,66.675 550.302,92.988 582.029,123.194C593.321,127.812 605.02,133.484 617.007,139.485C619.729,136.216 622.312,133.024 624.743,129.942C651.332,96.238 682.597,72.152 718.224,71.558Z" style="fill:url(#_Linear2);"/>
            <g>
                <g>
                    <g opacity="0.5">
                        <path d="M-1.743,150C-1.743,150 48.69,143.592 72.39,150.59C98.642,158.342 127.246,204.592 155.77,196.51C184.293,188.428 206.729,109.751 243.53,102.098C280.331,94.445 337.867,155.034 376.574,150.59C415.281,146.146 439.737,75.436 475.77,75.436C511.802,75.436 546.865,157.023 592.77,150.59C651.27,142.392 740.18,26.247 826.77,26.247C913.359,26.247 1039.47,144.423 1112.31,150.59C1170.38,155.507 1215.78,63.345 1263.77,63.247C1311.76,63.149 1338.53,144.496 1400.26,150" style="fill:rgb(22,240,175);"/>
                        <path d="M-1.743,150C-1.743,150 48.69,156.408 72.39,149.41C98.642,141.658 127.246,95.408 155.77,103.49C184.293,111.572 206.729,190.249 243.53,197.902C280.331,205.555 337.867,144.966 376.574,149.41C415.281,153.854 439.737,224.564 475.77,224.564C511.802,224.564 546.865,142.977 592.77,149.41C651.27,157.608 740.18,273.753 826.77,273.753C913.359,273.753 1039.47,155.577 1112.31,149.41C1170.38,144.493 1215.78,236.655 1263.77,236.753C1311.76,236.851 1338.53,155.504 1400.26,150" style="fill:rgb(22,240,175);"/>
                    </g>
                </g>
                <g>
                    <g opacity="0.5">
                        <path d="M1401.26,149.953C1401.26,149.953 1358.87,119.41 1335.41,122.956C1293.5,129.29 1203.87,189.798 1149.81,187.962C1097.1,186.171 1063.79,112.478 1011.06,111.936C943.383,111.242 823.005,183.793 743.743,183.793C670.31,183.793 592.981,111.936 535.491,111.936C484.016,111.936 448.854,180.785 398.804,183.793C348.754,186.802 292.4,134.821 235.193,129.989C168.516,124.357 -1.257,150 -1.257,150" style="fill:rgb(98,0,234);"/>
                        <path d="M1401.26,150C1401.26,150 1358.9,180.802 1335.41,177.277C1293.5,170.989 1203.87,110.434 1149.81,112.271C1097.1,114.061 1063.79,187.755 1011.06,188.296C943.383,188.991 823.005,116.439 743.743,116.439C670.31,116.439 592.981,188.296 535.491,188.296C484.016,188.296 448.854,119.448 398.804,116.439C348.754,113.431 292.402,165.445 235.193,170.244C168.516,175.837 -1.257,150 -1.257,150" style="fill:rgb(98,0,234);"/>
                    </g>
                </g>
                <g>
                    <g opacity="0.5">
                        <path d="M-1.257,149.953C-1.257,149.953 134.743,149.566 155.743,146.953C206.377,140.655 255.406,98.882 304.743,111.889C358.243,125.994 423.41,228.573 476.743,231.582C530.077,234.591 591.578,171.983 624.743,129.942C670.455,71.998 729.988,42.482 801.743,111.889C866.326,174.358 902.821,206.945 954.743,209.953C1006.67,212.962 1067.51,134.31 1113.28,129.942C1155.74,125.89 1186.84,180.454 1229.37,183.747C1272.44,187.082 1343.01,155.586 1371.74,149.953C1381.56,148.03 1401.74,149.953 1401.74,149.953" style="fill:rgb(22,84,240);"/>
                        <path d="M-1.257,150C-1.257,150 134.743,150.667 155.743,153.279C206.377,159.578 255.406,201.351 304.743,188.343C358.243,174.238 423.41,71.66 476.743,68.651C530.077,65.642 591.578,128.25 624.743,170.291C670.455,228.235 729.988,257.751 801.743,188.343C866.326,125.874 902.821,93.288 954.743,90.279C1006.67,87.27 1067.51,165.923 1113.28,170.291C1155.74,174.342 1186.84,119.778 1229.37,116.486C1272.44,113.151 1343.01,144.694 1371.74,150.279C1381.56,152.188 1401.74,150 1401.74,150" style="fill:rgb(22,84,240);"/>
                    </g>
                </g>
            </g>
        </g>
    </g>
    <defs>
        <linearGradient id="_Linear2" x1="0" y1="0" x2="1" y2="0" gradientUnits="userSpaceOnUse" gradientTransform="matrix(1403.49,0,0,247.506,-1.74349,150)"><stop offset="0" style="stop-color:rgb(22,240,175);stop-opacity:1"/><stop offset="0.5" style="stop-color:rgb(22,84,240);stop-opacity:1"/><stop offset="1" style="stop-color:rgb(98,0,234);stop-opacity:1"/></linearGradient>
    </defs>
</svg>
