<!-- Generated by IcoMoon.io -->
<svg version="1.1" xmlns="http://www.w3.org/2000/svg" width="58" height="32" viewBox="0 0 58 32">
<title>naamio-mask-logo</title>
<path fill="var(--dark-neutral-color), #000" d="M1.333 7.711c0.268-0.807 0.853-1.581 2.12-2.234 2.547-1.314 9.37-4.677 9.37-4.677s8.841 2.338 11.676 2.338h9.353c2.835 0 11.718-2.338 11.718-2.338s6.782 3.363 9.329 4.677c1.266 0.653 1.851 1.426 2.12 2.231-0.295 0.312-0.641 0.564-0.993 0.816l0.273 0.38c0.294-0.211 0.59-0.424 0.854-0.668 0.118 0.647 0.086 1.302 0.086 1.918 0 11.69-8.482 21.047-14.031 21.047-5.528 0-11.294-4.643-13.758-4.677h-0.525c-2.464 0.034-8.251 4.677-13.779 4.677-5.549 0-14.031-9.285-14.031-21.047 0-0.616-0.032-1.271 0.086-1.917 0.264 0.242 0.557 0.457 0.85 0.667l0.272-0.38c-0.348-0.249-0.698-0.504-0.989-0.812zM34.466 20.952c0.768-0.593 2.5-1.289 6.403-1.445 3.825-0.152 6.913-3.825 7.016-7.016-3.902-1.227-5.904-1.215-7.016-1.169s-7.016-0.604-7.016 8.184v2.199l-0.199 1.095c-0.057 0.054-0.093 0.13-0.093 0.215 0 0.161 0.131 0.293 0.292 0.293s0.293-0.132 0.293-0.293c0-0.047-0.011-0.091-0.031-0.131l0.351-1.932zM24.5 21.706v-2.199c0-8.789-5.904-8.139-7.016-8.184s-3.113-0.058-7.016 1.169c0.103 3.191 3.191 6.863 7.016 7.016 3.9 0.155 5.633 0.845 6.401 1.435l0.353 1.942c-0.020 0.040-0.031 0.084-0.031 0.131 0 0.161 0.131 0.293 0.293 0.293s0.292-0.132 0.292-0.293c0-0.085-0.036-0.161-0.093-0.215l-0.199-1.095zM49.966 12.028c-0.064-0.176-0.168-0.437-0.168-0.437-0.358 0.13-0.717 0.256-1.077 0.378-0.078 0.026-0.156 0.053-0.234 0.079l0.148 0.443c0.446-0.149 0.89-0.302 1.332-0.464zM8.551 11.592c-0.049-0.018-0.16 0.44-0.16 0.44 0.439 0.16 0.88 0.313 1.324 0.461l0.148-0.443c-0.44-0.147-0.876-0.299-1.312-0.457zM52.583 10.968c-0.064-0.142-0.128-0.284-0.192-0.427l-0.11 0.050c-0.321 0.143-0.644 0.28-0.969 0.415-0.068 0.027-0.135 0.056-0.203 0.083l0.175 0.434 0.076-0.031c0.41-0.168 0.819-0.342 1.224-0.523zM6.011 10.565c-0.018-0.008-0.036-0.016-0.053-0.024l-0.192 0.427 0.111 0.050c0.392 0.175 0.788 0.343 1.188 0.504l0.166-0.438c-0.409-0.167-0.817-0.339-1.22-0.52zM55.102 9.676c-0.079-0.135-0.158-0.269-0.237-0.404l-0.064 0.038c-0.309 0.18-0.622 0.352-0.938 0.518-0.072 0.038-0.144 0.074-0.216 0.112l0.213 0.416 0.034-0.017c0.409-0.21 0.813-0.429 1.209-0.663zM3.512 9.288c-0.009-0.005-0.019-0.010-0.027-0.016l-0.238 0.404 0.028 0.016c0.398 0.233 0.805 0.454 1.216 0.664l0.213-0.416c-0.404-0.206-0.801-0.423-1.192-0.651z"></path>
</svg>
