<!-- Generated by IcoMoon.io -->
<svg version="1.1" xmlns="http://www.w3.org/2000/svg" width="149" height="32" viewBox="0 0 149 32">
<title>naamio-flow</title>
<path fill="#000" d="M76.611 7.633c3.728-2.621 7.675-4.833 11.578-4.833 6 0 13.778 5.319 20.623 9.227 1.723 0.292 3.26 1.288 4.745 2.484 0.566 0.258 1.119 0.49 1.658 0.693 0.837-0.489 1.65-0.882 2.431-1.118 1.542-1.164 3.161-2.048 5.002-2.111 1.065-0.036 2.26 0.155 3.529 0.494 2.99-2.625 5.776-5.72 8.627-5.723 3.291-0.004 5.573 3.64 8.56 6.37 2.482 0.308 5.917 2.754 6.098 2.883-0.181 0.13-3.645 2.62-6.129 2.912-2.972 2.727-5.249 6.346-8.529 6.342-2.844-0.003-5.623-3.083-8.606-5.704-1.277 0.343-2.479 0.536-3.55 0.5-1.841-0.063-3.459-0.947-5.002-2.111-0.788-0.238-1.611-0.636-2.457-1.133-0.508 0.192-1.029 0.411-1.562 0.652-1.524 1.235-3.101 2.267-4.877 2.551-6.829 3.905-14.579 9.192-20.561 9.192-3.89 0-7.825-2.198-11.542-4.808-3.815-0.048-7.162-2.622-10.007-6.228-0.259-0.329-0.535-0.669-0.825-1.018-1.279 0.64-2.526 1.245-3.731 1.738-3.384 3.222-7.495 6.029-11.23 5.818-2.574-0.145-5.406-2.465-8.265-5.101-0.016 0.001-0.032 0.002-0.049 0.003-2.006 0.121-4.106-0.587-6.271-1.544-1.294 0.972-2.556 1.712-3.762 2.030-0.893 0.236-1.785 0.303-2.678 0.249-1.4 0.636-2.718 1.007-3.852 0.771-1.334-0.277-2.491-1.43-3.557-2.865-0.901-0.005-1.878-0.036-2.903-0.087-0.949 1.397-1.889 2.517-2.901 2.804-2.268 0.643-4.54-1.937-6.71-3.633-5.185-0.581-10.044-1.328-10.044-1.328s-0.046 0-0.047 0l0.229-0.026c0.889-0.132 5.012-0.733 9.825-1.273 2.181-1.695 4.467-4.308 6.747-3.662 1.018 0.288 1.963 1.419 2.917 2.828 1.012-0.050 1.977-0.081 2.868-0.086 1.071-1.446 2.234-2.611 3.576-2.89 1.146-0.238 2.481 0.144 3.9 0.793 0.876-0.049 1.752 0.020 2.63 0.251 1.206 0.318 2.468 1.058 3.762 2.030 2.165-0.958 4.265-1.665 6.271-1.544 0.016 0.001 0.032 0.002 0.049 0.003 2.859-2.636 5.691-4.955 8.265-5.101 3.735-0.211 7.846 2.596 11.23 5.818 1.204 0.493 2.452 1.098 3.731 1.738 0.29-0.349 0.566-0.689 0.825-1.018 2.836-3.595 6.171-6.164 9.971-6.228z"></path>
<path fill="#16f0af" opacity="0.5" d="M-0.186 16c0 0 5.38-0.684 7.908 0.063 2.8 0.827 5.851 5.76 8.894 4.898s5.436-9.254 9.361-10.071 10.063 5.646 14.191 5.172c4.129-0.474 6.737-8.016 10.581-8.016s7.583 8.703 12.48 8.016c6.24-0.874 15.724-13.263 24.96-13.263s22.688 12.605 30.458 13.263c6.194 0.524 11.037-9.306 16.156-9.317s7.974 8.667 14.559 9.254z"></path>
<path fill="#16f0af" opacity="0.5" d="M-0.186 16c0 0 5.38 0.684 7.908-0.063 2.8-0.827 5.851-5.76 8.894-4.898s5.436 9.254 9.361 10.071 10.063-5.646 14.191-5.172c4.129 0.474 6.737 8.016 10.581 8.016s7.583-8.703 12.48-8.016c6.24 0.874 15.724 13.263 24.96 13.263s22.688-12.605 30.458-13.263c6.194-0.524 11.037 9.306 16.156 9.317s7.974-8.667 14.559-9.254z"></path>
<path fill="#6200ea" opacity="0.5" d="M149.468 15.995c0 0-4.522-3.258-7.024-2.88-4.47 0.676-14.031 7.13-19.797 6.934-5.622-0.191-9.175-8.052-14.8-8.109-7.219-0.074-20.059 7.665-28.514 7.665-7.833 0-16.081-7.665-22.214-7.665-5.491 0-9.241 7.344-14.58 7.665s-11.35-5.224-17.452-5.739c-7.112-0.601-25.221 2.135-25.221 2.135z"></path>
<path fill="#6200ea" opacity="0.5" d="M149.468 16c0 0-4.518 3.286-7.024 2.91-4.47-0.671-14.031-7.13-19.797-6.934-5.622 0.191-9.175 8.052-14.8 8.109-7.219 0.074-20.059-7.665-28.514-7.665-7.833 0-16.081 7.665-22.214 7.665-5.491 0-9.241-7.344-14.58-7.665s-11.35 5.227-17.452 5.739c-7.112 0.597-25.221-2.159-25.221-2.159z"></path>
<path fill="#1654f0" opacity="0.5" d="M-0.134 15.995c0 0 14.507-0.041 16.747-0.32 5.401-0.672 10.631-5.128 15.893-3.74 5.707 1.505 12.658 12.446 18.347 12.767s12.249-6.357 15.787-10.842c4.876-6.181 11.226-9.329 18.88-1.926 6.889 6.663 10.782 10.139 16.32 10.46s12.028-8.069 16.911-8.534c4.529-0.432 7.846 5.388 12.383 5.739 4.594 0.356 12.122-3.004 15.186-3.605 1.047-0.205 3.2 0 3.2 0z"></path>
<path fill="#1654f0" opacity="0.5" d="M-0.134 16c0 0 14.507 0.071 16.747 0.35 5.401 0.672 10.631 5.128 15.893 3.74 5.707-1.505 12.658-12.446 18.347-12.767s12.249 6.357 15.787 10.842c4.876 6.181 11.226 9.329 18.88 1.926 6.889-6.663 10.782-10.139 16.32-10.46s12.028 8.069 16.911 8.535c4.529 0.432 7.846-5.388 12.383-5.739 4.594-0.356 12.122 3.009 15.186 3.605 1.047 0.204 3.2-0.030 3.2-0.030z"></path>
</svg>
