<!-- Generated by IcoMoon.io -->
<svg version="1.1" xmlns="http://www.w3.org/2000/svg" width="32" height="32" viewBox="0 0 32 32">
<title>serverless</title>
<path fill="#1654f0" opacity="0.2" d="M16.175 7.683c-4.056 1.779-7.9-1.881-11.315 1.265-2.955 2.723-3.289 6.674-0.995 9.142 2.664 2.864 6.814 2.317 7.051 4.592 0.546 5.238 7.594 7.47 13.079 3.38s6.356-11.345 5.187-17.114c-1.253-6.187-9.635-2.744-13.008-1.265z"></path>
<path fill="#1654f0" opacity="0.4" d="M15.986 5.71c-3.329 1.46-6.485-1.544-9.288 1.038-2.426 2.235-2.7 5.479-0.816 7.504 2.187 2.351 5.593 1.902 5.788 3.77 0.448 4.299 6.234 6.132 10.736 2.775s5.217-9.312 4.258-14.048c-1.029-5.079-7.909-2.252-10.678-1.038z"></path>
<path fill="#1654f0" d="M22.557 9.536c-1.678 0.736-3.269-0.779-4.683 0.523-1.223 1.127-1.361 2.762-0.412 3.783 1.102 1.185 2.82 0.959 2.918 1.901 0.226 2.168 3.143 3.091 5.413 1.399s2.63-4.695 2.147-7.083c-0.519-2.56-3.988-1.136-5.383-0.523z"></path>
</svg>
