<svg aria-hidden="true" style="position: absolute; width: 0; height: 0; overflow: hidden;" version="1.1" xmlns="http://www.w3.org/2000/svg" xmlns:xlink="http://www.w3.org/1999/xlink">
<defs>
<symbol id="arrow-up" viewBox="0 0 32 32">
<title>arrow-up</title>
<path d="M31 22.071l-14.857-15-15.143 15 2.857 2.858 12.286-12.143 12 12.143 2.857-2.858z"></path>
</symbol>
<symbol id="facebook" viewBox="0 0 32 32">
<title>facebook</title>
<path fill="#16f0af" style="fill: var(--color1, #16f0af)" d="M12.427 31v-13.725h-5.201v-5.242h5.203v-3.967c0-4.561 3.095-7.066 7.676-7.066 2.194 0 4.119 0.132 4.669 0.197v4.837l-3.252-0.001c-2.491 0-2.958 1.052-2.958 2.595v3.405h5.962l-0.774 5.242h-5.188v13.725h-6.137z"></path>
</symbol>
<symbol id="github" viewBox="0 0 32 32">
<title>github</title>
<path fill="#16f0af" style="fill: var(--color1, #16f0af)" d="M15.999 1.37c-8.283 0-14.999 6.716-14.999 15.001 0 6.627 4.298 12.249 10.258 14.233 0.751 0.137 1.024-0.326 1.024-0.724 0-0.355-0.013-1.299-0.020-2.55-4.172 0.906-5.053-2.012-5.053-2.012-0.682-1.732-1.666-2.193-1.666-2.193-1.362-0.931 0.104-0.913 0.104-0.913 1.505 0.107 2.297 1.547 2.297 1.547 1.338 2.292 3.511 1.629 4.366 1.246 0.136-0.969 0.523-1.63 0.952-2.005-3.331-0.379-6.833-1.666-6.833-7.414 0-1.637 0.585-2.976 1.545-4.025-0.155-0.379-0.67-1.904 0.146-3.97 0 0 1.26-0.403 4.125 1.538 1.196-0.332 2.48-0.499 3.755-0.504 1.274 0.005 2.558 0.172 3.756 0.504 2.863-1.941 4.12-1.538 4.12-1.538 0.819 2.066 0.304 3.591 0.15 3.97 0.961 1.049 1.542 2.388 1.542 4.025 0 5.763-3.508 7.031-6.849 7.402 0.538 0.463 1.018 1.378 1.018 2.778 0 2.005-0.018 3.623-0.018 4.114 0 0.402 0.27 0.869 1.031 0.722 5.956-1.988 10.25-7.606 10.25-14.231 0-8.285-6.717-15.001-15.001-15.001z"></path>
</symbol>
<symbol id="intelligent" viewBox="0 0 32 32">
<title>intelligent</title>
<path fill="#16f0af" opacity="0.3" style="fill: var(--color1, #16f0af)" d="M21.278 14.354c0 4.099-3.323 7.423-7.423 7.423s-7.423-3.323-7.423-7.423c0-4.099 3.323-7.423 7.423-7.423s7.423 3.323 7.423 7.423z"></path>
<path fill="#16f0af" opacity="0.4" style="fill: var(--color1, #16f0af)" d="M18.804 14.354c0 2.733-2.215 4.948-4.948 4.948s-4.948-2.215-4.948-4.948c0-2.733 2.216-4.948 4.948-4.948s4.948 2.216 4.948 4.948z"></path>
<path fill="#16f0af" style="fill: var(--color1, #16f0af)" d="M16.33 14.354c0 1.367-1.108 2.474-2.474 2.474s-2.474-1.108-2.474-2.474c0-1.367 1.108-2.474 2.474-2.474s2.474 1.108 2.474 2.474z"></path>
<path fill="#16f0af" opacity="0.3" style="fill: var(--color1, #16f0af)" d="M32 8.523c0 2.004-1.625 3.629-3.629 3.629s-3.629-1.625-3.629-3.629c0-2.004 1.625-3.629 3.629-3.629s3.629 1.625 3.629 3.629z"></path>
<path fill="#16f0af" opacity="0.4" style="fill: var(--color1, #16f0af)" d="M30.79 8.523c0 1.336-1.083 2.419-2.419 2.419s-2.419-1.083-2.419-2.419c0-1.336 1.083-2.419 2.419-2.419s2.419 1.083 2.419 2.419z"></path>
<path fill="#16f0af" style="fill: var(--color1, #16f0af)" d="M29.581 8.523c0 0.668-0.542 1.21-1.21 1.21s-1.21-0.542-1.21-1.21c0-0.668 0.542-1.21 1.21-1.21s1.21 0.542 1.21 1.21z"></path>
<path fill="#16f0af" opacity="0.3" style="fill: var(--color1, #16f0af)" d="M7.258 22.81c0 2.004-1.625 3.629-3.629 3.629s-3.629-1.625-3.629-3.629c0-2.004 1.625-3.629 3.629-3.629s3.629 1.625 3.629 3.629z"></path>
<path fill="#16f0af" opacity="0.4" style="fill: var(--color1, #16f0af)" d="M6.048 22.81c0 1.336-1.083 2.419-2.419 2.419s-2.419-1.083-2.419-2.419c0-1.336 1.083-2.419 2.419-2.419s2.419 1.083 2.419 2.419z"></path>
<path fill="#16f0af" style="fill: var(--color1, #16f0af)" d="M4.838 22.81c0 0.668-0.542 1.21-1.21 1.21s-1.21-0.542-1.21-1.21c0-0.668 0.542-1.21 1.21-1.21s1.21 0.542 1.21 1.21z"></path>
<path fill="#16f0af" opacity="0.3" style="fill: var(--color1, #16f0af)" d="M28.536 27.238c0 1.105-0.896 2.002-2.002 2.002s-2.002-0.896-2.002-2.002c0-1.105 0.896-2.002 2.002-2.002s2.002 0.896 2.002 2.002z"></path>
<path fill="#16f0af" opacity="0.4" style="fill: var(--color1, #16f0af)" d="M27.869 27.238c0 0.737-0.597 1.334-1.334 1.334s-1.334-0.597-1.334-1.334c0-0.737 0.597-1.334 1.334-1.334s1.334 0.597 1.334 1.334z"></path>
<path fill="#16f0af" style="fill: var(--color1, #16f0af)" d="M27.202 27.238c0 0.369-0.299 0.667-0.667 0.667s-0.667-0.299-0.667-0.667c0-0.369 0.299-0.667 0.667-0.667s0.667 0.299 0.667 0.667z"></path>
<path fill="#16f0af" opacity="0.3" style="fill: var(--color1, #16f0af)" d="M7.258 8.229c0 1.105-0.896 2.002-2.002 2.002s-2.002-0.896-2.002-2.002c0-1.105 0.896-2.002 2.002-2.002s2.002 0.896 2.002 2.002z"></path>
<path fill="#16f0af" opacity="0.4" style="fill: var(--color1, #16f0af)" d="M6.59 8.229c0 0.737-0.597 1.334-1.334 1.334s-1.334-0.597-1.334-1.334c0-0.737 0.597-1.334 1.334-1.334s1.334 0.597 1.334 1.334z"></path>
<path fill="#16f0af" style="fill: var(--color1, #16f0af)" d="M5.923 8.229c0 0.368-0.299 0.667-0.667 0.667s-0.667-0.299-0.667-0.667c0-0.369 0.299-0.667 0.667-0.667s0.667 0.299 0.667 0.667z"></path>
</symbol>
<symbol id="isomorphic" viewBox="0 0 32 32">
<title>isomorphic</title>
<path fill="#6200ea" opacity="0.2" style="fill: var(--color2, #6200ea)" d="M16 7.315l-5.973 3.449-5.973-3.449 5.973-3.449 5.973 3.449z"></path>
<path fill="#6200ea" opacity="0.4" style="fill: var(--color2, #6200ea)" d="M10.027 17.661v-6.897l5.973-3.449v6.897l-5.973 3.449z"></path>
<path fill="#6200ea" style="fill: var(--color2, #6200ea)" d="M10.027 17.661v-6.897l-5.973-3.449v6.897l5.973 3.449z"></path>
<path fill="#6200ea" opacity="0.2" style="fill: var(--color2, #6200ea)" d="M27.947 7.315l-5.973 3.449-5.973-3.449 5.973-3.449 5.973 3.449z"></path>
<path fill="#6200ea" opacity="0.4" style="fill: var(--color2, #6200ea)" d="M21.973 17.661v-6.897l5.973-3.449v6.897l-5.973 3.449z"></path>
<path fill="#6200ea" style="fill: var(--color2, #6200ea)" d="M21.973 17.661v-6.897l-5.973-3.449v6.897l5.973 3.449z"></path>
<path fill="#6200ea" opacity="0.2" style="fill: var(--color2, #6200ea)" d="M21.973 17.664l-5.973 3.449-5.973-3.449 5.973-3.449 5.973 3.449z"></path>
<path fill="#6200ea" opacity="0.4" style="fill: var(--color2, #6200ea)" d="M16 28.010v-6.897l5.973-3.449v6.897l-5.973 3.449z"></path>
<path fill="#6200ea" style="fill: var(--color2, #6200ea)" d="M16 28.010v-6.897l-5.973-3.449v6.897l5.973 3.449z"></path>
</symbol>
<symbol id="naamio-badge" viewBox="0 0 22 32">
<title>naamio-badge</title>
<path fill="#f2f2f2" style="fill: var(--color3, #f2f2f2)" d="M21.217 5.593c0-2.879-2.338-5.217-5.217-5.217h-10.435c-2.88 0-5.217 2.338-5.217 5.217v20.815c0 2.879 2.338 5.217 5.217 5.217h10.435c2.88 0 5.217-2.338 5.217-5.217v-20.815z"></path>
<path fill="#fff" style="fill: var(--color4, #fff)" d="M21.217 5.593c0-2.879-2.338-5.217-5.217-5.217h-10.435c-2.88 0-5.217 2.338-5.217 5.217v10.435c0 2.88 2.338 5.217 5.217 5.217h10.435c2.88 0 5.217-2.338 5.217-5.217v-10.435z"></path>
<path fill="#3e3946" style="fill: var(--color5, #3e3946)" d="M0.348 16.027c0.009 2.888 2.343 5.217 5.217 5.217h10.435c2.88 0 5.217-2.338 5.217-5.217v10.38c0 2.879-2.338 5.217-5.217 5.217h-10.435c-2.88 0-5.217-2.338-5.217-5.217v-10.38z"></path>
<path fill="#000" style="fill: var(--color6, #000)" d="M2.705 8.406c0.078-0.234 0.247-0.459 0.615-0.648 0.739-0.381 2.718-1.357 2.718-1.357s2.565 0.679 3.387 0.679h2.714c0.822 0 3.399-0.679 3.399-0.679s1.968 0.976 2.706 1.357c0.367 0.19 0.537 0.414 0.615 0.647-0.085 0.091-0.186 0.163-0.288 0.237l0.079 0.111c0.085-0.061 0.171-0.123 0.248-0.194 0.034 0.187 0.025 0.378 0.025 0.557 0 3.391-2.461 6.106-4.070 6.106-1.604 0-3.277-1.347-3.991-1.357h-0.152c-0.714 0.010-2.394 1.357-3.998 1.357-1.61 0-4.070-2.694-4.070-6.106 0-0.179-0.009-0.369 0.025-0.557 0.076 0.070 0.161 0.133 0.247 0.194l0.079-0.111c-0.101-0.072-0.203-0.146-0.287-0.235zM9.426 12.466v-0.638c0-2.55-1.713-2.361-2.035-2.375s-0.903-0.017-2.035 0.339c0.030 0.926 0.926 1.991 2.035 2.035 1.131 0.045 1.634 0.245 1.857 0.416l0.102 0.563c-0.006 0.011-0.009 0.024-0.009 0.038 0 0.047 0.038 0.085 0.085 0.085s0.085-0.038 0.085-0.085c0-0.025-0.010-0.047-0.027-0.062l-0.058-0.318zM12.317 12.247c0.223-0.172 0.725-0.374 1.857-0.419 1.11-0.044 2.006-1.11 2.035-2.035-1.132-0.356-1.713-0.353-2.035-0.339s-2.035-0.175-2.035 2.375v0.638l-0.058 0.318c-0.017 0.016-0.027 0.038-0.027 0.062 0 0.047 0.038 0.085 0.085 0.085s0.085-0.038 0.085-0.085c0-0.014-0.003-0.026-0.009-0.038l0.102-0.561zM16.814 9.658c-0.019-0.051-0.049-0.127-0.049-0.127-0.104 0.038-0.208 0.074-0.313 0.11-0.023 0.008-0.045 0.015-0.068 0.023l0.043 0.129c0.129-0.043 0.258-0.088 0.386-0.135zM4.799 9.531c-0.014-0.005-0.047 0.128-0.047 0.128 0.127 0.046 0.256 0.091 0.384 0.134l0.043-0.129c-0.127-0.043-0.254-0.087-0.381-0.133zM17.573 9.35c-0.018-0.041-0.037-0.083-0.056-0.124l-0.032 0.014c-0.093 0.041-0.187 0.081-0.281 0.12-0.020 0.008-0.039 0.016-0.059 0.024l0.051 0.126 0.022-0.009c0.119-0.049 0.238-0.099 0.355-0.152zM4.062 9.233c-0.005-0.002-0.010-0.005-0.015-0.007l-0.056 0.124 0.032 0.014c0.114 0.051 0.229 0.1 0.345 0.146l0.048-0.127c-0.119-0.048-0.237-0.098-0.354-0.151zM18.304 8.976c-0.023-0.039-0.046-0.078-0.069-0.117l-0.019 0.011c-0.089 0.052-0.18 0.102-0.272 0.15-0.021 0.011-0.042 0.022-0.063 0.032l0.062 0.121 0.010-0.005c0.119-0.061 0.236-0.125 0.351-0.192zM3.337 8.863c-0.003-0.002-0.006-0.003-0.008-0.005l-0.069 0.117 0.008 0.005c0.115 0.068 0.233 0.132 0.353 0.193l0.062-0.121c-0.117-0.059-0.232-0.122-0.345-0.189z"></path>
<path fill="#fff" style="fill: var(--color4, #fff)" d="M3.411 23.197c-0.152 0-0.288 0.076-0.38 0.206l-0.017-0.178h-0.174v1.788l0.203-0.024v-0.608c0.087 0.097 0.198 0.145 0.339 0.145 0.332 0 0.491-0.278 0.491-0.665 0-0.399-0.123-0.662-0.462-0.662zM3.363 23.361c0.201 0 0.29 0.166 0.29 0.499 0 0.339-0.106 0.496-0.317 0.496-0.121 0-0.225-0.061-0.293-0.16v-0.632c0.070-0.1 0.179-0.203 0.319-0.203z"></path>
<path fill="#fff" style="fill: var(--color4, #fff)" d="M4.778 23.197c-0.358 0-0.552 0.272-0.552 0.665 0 0.402 0.191 0.662 0.549 0.662 0.356 0 0.549-0.272 0.549-0.665 0-0.402-0.189-0.662-0.547-0.662zM4.778 23.364c0.218 0 0.327 0.16 0.327 0.496 0 0.342-0.109 0.499-0.329 0.499s-0.329-0.157-0.329-0.496c0-0.339 0.111-0.499 0.332-0.499z"></path>
<path fill="#fff" style="fill: var(--color4, #fff)" d="M6.69 24.498l0.22-1.273h-0.196l-0.165 1.149-0.191-0.989h-0.24l-0.203 0.989-0.165-1.149h-0.206l0.23 1.273h0.281l0.179-0.935 0.167 0.935h0.288z"></path>
<path fill="#fff" style="fill: var(--color4, #fff)" d="M7.357 23.932h0.857c0.002-0.027 0.005-0.067 0.005-0.109 0-0.387-0.198-0.626-0.52-0.626-0.339 0-0.554 0.281-0.554 0.665 0 0.396 0.21 0.662 0.583 0.662 0.157 0 0.317-0.054 0.436-0.148l-0.094-0.136c-0.114 0.076-0.21 0.115-0.341 0.115-0.196 0-0.361-0.127-0.37-0.423zM7.701 23.364c0.194 0 0.315 0.139 0.319 0.414h-0.663c0.017-0.281 0.155-0.414 0.344-0.414z"></path>
<path fill="#fff" style="fill: var(--color4, #fff)" d="M9.509 23.197c-0.23 0-0.361 0.121-0.457 0.33l-0.039-0.302h-0.353v0.157h0.201v0.959h-0.201v0.157h0.663v-0.157h-0.259v-0.535c0.082-0.281 0.223-0.423 0.419-0.423h0.012v0.275h0.165l0.029-0.433c-0.056-0.015-0.109-0.027-0.179-0.027z"></path>
<path fill="#fff" style="fill: var(--color4, #fff)" d="M10.261 23.932h0.857c0.002-0.027 0.005-0.067 0.005-0.109 0-0.387-0.198-0.626-0.52-0.626-0.339 0-0.554 0.281-0.554 0.665 0 0.396 0.21 0.662 0.583 0.662 0.157 0 0.317-0.054 0.436-0.148l-0.094-0.136c-0.114 0.076-0.21 0.115-0.341 0.115-0.196 0-0.361-0.127-0.37-0.423zM10.605 23.364c0.194 0 0.315 0.139 0.319 0.414h-0.663c0.017-0.281 0.155-0.414 0.344-0.414z"></path>
<path fill="#fff" style="fill: var(--color4, #fff)" d="M12.315 22.686v0.662c-0.087-0.1-0.196-0.151-0.344-0.151-0.312 0-0.498 0.281-0.498 0.665 0 0.396 0.152 0.662 0.486 0.662 0.138 0 0.266-0.061 0.361-0.194l0.019 0.166h0.179v-1.788l-0.203-0.024zM12.025 23.361c0.119 0 0.22 0.061 0.29 0.166v0.632c-0.070 0.106-0.169 0.203-0.315 0.203-0.201 0-0.307-0.169-0.307-0.499 0-0.336 0.121-0.502 0.332-0.502z"></path>
<path fill="#fff" style="fill: var(--color4, #fff)" d="M14.658 23.391v-0.705l-0.203 0.024v1.788h0.179l0.015-0.133c0.087 0.112 0.201 0.16 0.346 0.16 0.329 0 0.506-0.278 0.506-0.665 0-0.399-0.138-0.662-0.477-0.662-0.148 0-0.271 0.070-0.365 0.194zM14.948 24.362c-0.119 0-0.223-0.061-0.29-0.166v-0.632c0.070-0.1 0.179-0.203 0.319-0.203 0.198 0 0.302 0.166 0.302 0.499 0 0.339-0.121 0.502-0.332 0.502z"></path>
<path fill="#fff" style="fill: var(--color4, #fff)" d="M16.966 23.225h-0.21l-0.361 1.119-0.365-1.119h-0.215l0.443 1.273h0.068c-0.065 0.197-0.143 0.305-0.404 0.351l0.029 0.163c0.339-0.036 0.481-0.245 0.571-0.505l0.445-1.282z"></path>
<path fill="#fff" style="fill: var(--color4, #fff)" d="M4.489 26.21h0.762v2.544h-0.704l-1.002-1.301v1.301h-0.766v-2.544h0.704l1.005 1.307v-1.307z"></path>
<path fill="#fff" style="fill: var(--color4, #fff)" d="M7.491 28.754l-0.127-0.36h-0.955l-0.131 0.36h-0.864l1.074-2.544h0.864l1.034 2.544h-0.896zM6.627 27.792h0.53l-0.261-0.744-0.269 0.744z"></path>
<path fill="#fff" style="fill: var(--color4, #fff)" d="M10.409 28.754l-0.127-0.36h-0.955l-0.131 0.36h-0.864l1.074-2.544h0.864l1.034 2.544h-0.896zM9.545 27.792h0.53l-0.261-0.744-0.269 0.744z"></path>
<path fill="#fff" style="fill: var(--color4, #fff)" d="M11.468 26.21h0.893l0.632 1.328 0.628-1.328h0.893v2.544h-0.737v-1.394l-0.512 1.146h-0.548l-0.512-1.146v1.394h-0.737v-2.544z"></path>
<path fill="#fff" style="fill: var(--color4, #fff)" d="M14.895 26.21h0.842v2.544h-0.842v-2.544z"></path>
<path fill="#fff" style="fill: var(--color4, #fff)" d="M17.388 26.155c0.266 0 0.506 0.054 0.719 0.169s0.379 0.272 0.499 0.472c0.12 0.2 0.18 0.426 0.18 0.677 0 0.254-0.060 0.484-0.18 0.687s-0.286 0.363-0.499 0.478c-0.213 0.115-0.452 0.172-0.719 0.172s-0.506-0.057-0.719-0.172c-0.213-0.115-0.379-0.275-0.499-0.478s-0.18-0.433-0.18-0.687c0-0.251 0.060-0.481 0.18-0.681s0.286-0.357 0.499-0.472c0.213-0.112 0.452-0.166 0.719-0.166zM17.399 26.854c-0.097 0-0.187 0.027-0.27 0.082s-0.15 0.13-0.2 0.224c-0.050 0.094-0.074 0.203-0.074 0.321s0.025 0.224 0.074 0.321c0.050 0.097 0.116 0.172 0.2 0.227s0.174 0.085 0.27 0.085c0.097 0 0.185-0.027 0.265-0.082 0.080-0.057 0.143-0.133 0.189-0.227 0.046-0.097 0.069-0.206 0.069-0.324s-0.023-0.227-0.069-0.321c-0.046-0.097-0.109-0.172-0.189-0.224-0.080-0.054-0.168-0.082-0.265-0.082z"></path>
</symbol>
<symbol id="naamio-flow" viewBox="0 0 149 32">
<title>naamio-flow</title>
<path fill="#000" style="fill: var(--color6, #000)" d="M76.611 7.633c3.728-2.621 7.675-4.833 11.578-4.833 6 0 13.778 5.319 20.623 9.227 1.723 0.292 3.26 1.288 4.745 2.484 0.566 0.258 1.119 0.49 1.658 0.693 0.837-0.489 1.65-0.882 2.431-1.118 1.542-1.164 3.161-2.048 5.002-2.111 1.065-0.036 2.26 0.155 3.529 0.494 2.99-2.625 5.776-5.72 8.627-5.723 3.291-0.004 5.573 3.64 8.56 6.37 2.482 0.308 5.917 2.754 6.098 2.883-0.181 0.13-3.645 2.62-6.129 2.912-2.972 2.727-5.249 6.346-8.529 6.342-2.844-0.003-5.623-3.083-8.606-5.704-1.277 0.343-2.479 0.536-3.55 0.5-1.841-0.063-3.459-0.947-5.002-2.111-0.788-0.238-1.611-0.636-2.457-1.133-0.508 0.192-1.029 0.411-1.562 0.652-1.524 1.235-3.101 2.267-4.877 2.551-6.829 3.905-14.579 9.192-20.561 9.192-3.89 0-7.825-2.198-11.542-4.808-3.815-0.048-7.162-2.622-10.007-6.228-0.259-0.329-0.535-0.669-0.825-1.018-1.279 0.64-2.526 1.245-3.731 1.738-3.384 3.222-7.495 6.029-11.23 5.818-2.574-0.145-5.406-2.465-8.265-5.101-0.016 0.001-0.032 0.002-0.049 0.003-2.006 0.121-4.106-0.587-6.271-1.544-1.294 0.972-2.556 1.712-3.762 2.030-0.893 0.236-1.785 0.303-2.678 0.249-1.4 0.636-2.718 1.007-3.852 0.771-1.334-0.277-2.491-1.43-3.557-2.865-0.901-0.005-1.878-0.036-2.903-0.087-0.949 1.397-1.889 2.517-2.901 2.804-2.268 0.643-4.54-1.937-6.71-3.633-5.185-0.581-10.044-1.328-10.044-1.328s-0.046 0-0.047 0l0.229-0.026c0.889-0.132 5.012-0.733 9.825-1.273 2.181-1.695 4.467-4.308 6.747-3.662 1.018 0.288 1.963 1.419 2.917 2.828 1.012-0.050 1.977-0.081 2.868-0.086 1.071-1.446 2.234-2.611 3.576-2.89 1.146-0.238 2.481 0.144 3.9 0.793 0.876-0.049 1.752 0.020 2.63 0.251 1.206 0.318 2.468 1.058 3.762 2.030 2.165-0.958 4.265-1.665 6.271-1.544 0.016 0.001 0.032 0.002 0.049 0.003 2.859-2.636 5.691-4.955 8.265-5.101 3.735-0.211 7.846 2.596 11.23 5.818 1.204 0.493 2.452 1.098 3.731 1.738 0.29-0.349 0.566-0.689 0.825-1.018 2.836-3.595 6.171-6.164 9.971-6.228z"></path>
<path fill="#16f0af" opacity="0.5" style="fill: var(--color1, #16f0af)" d="M-0.186 16c0 0 5.38-0.684 7.908 0.063 2.8 0.827 5.851 5.76 8.894 4.898s5.436-9.254 9.361-10.071 10.063 5.646 14.191 5.172c4.129-0.474 6.737-8.016 10.581-8.016s7.583 8.703 12.48 8.016c6.24-0.874 15.724-13.263 24.96-13.263s22.688 12.605 30.458 13.263c6.194 0.524 11.037-9.306 16.156-9.317s7.974 8.667 14.559 9.254z"></path>
<path fill="#16f0af" opacity="0.5" style="fill: var(--color1, #16f0af)" d="M-0.186 16c0 0 5.38 0.684 7.908-0.063 2.8-0.827 5.851-5.76 8.894-4.898s5.436 9.254 9.361 10.071 10.063-5.646 14.191-5.172c4.129 0.474 6.737 8.016 10.581 8.016s7.583-8.703 12.48-8.016c6.24 0.874 15.724 13.263 24.96 13.263s22.688-12.605 30.458-13.263c6.194-0.524 11.037 9.306 16.156 9.317s7.974-8.667 14.559-9.254z"></path>
<path fill="#6200ea" opacity="0.5" style="fill: var(--color2, #6200ea)" d="M149.468 15.995c0 0-4.522-3.258-7.024-2.88-4.47 0.676-14.031 7.13-19.797 6.934-5.622-0.191-9.175-8.052-14.8-8.109-7.219-0.074-20.059 7.665-28.514 7.665-7.833 0-16.081-7.665-22.214-7.665-5.491 0-9.241 7.344-14.58 7.665s-11.35-5.224-17.452-5.739c-7.112-0.601-25.221 2.135-25.221 2.135z"></path>
<path fill="#6200ea" opacity="0.5" style="fill: var(--color2, #6200ea)" d="M149.468 16c0 0-4.518 3.286-7.024 2.91-4.47-0.671-14.031-7.13-19.797-6.934-5.622 0.191-9.175 8.052-14.8 8.109-7.219 0.074-20.059-7.665-28.514-7.665-7.833 0-16.081 7.665-22.214 7.665-5.491 0-9.241-7.344-14.58-7.665s-11.35 5.227-17.452 5.739c-7.112 0.597-25.221-2.159-25.221-2.159z"></path>
<path fill="#1654f0" opacity="0.5" style="fill: var(--color7, #1654f0)" d="M-0.134 15.995c0 0 14.507-0.041 16.747-0.32 5.401-0.672 10.631-5.128 15.893-3.74 5.707 1.505 12.658 12.446 18.347 12.767s12.249-6.357 15.787-10.842c4.876-6.181 11.226-9.329 18.88-1.926 6.889 6.663 10.782 10.139 16.32 10.46s12.028-8.069 16.911-8.534c4.529-0.432 7.846 5.388 12.383 5.739 4.594 0.356 12.122-3.004 15.186-3.605 1.047-0.205 3.2 0 3.2 0z"></path>
<path fill="#1654f0" opacity="0.5" style="fill: var(--color7, #1654f0)" d="M-0.134 16c0 0 14.507 0.071 16.747 0.35 5.401 0.672 10.631 5.128 15.893 3.74 5.707-1.505 12.658-12.446 18.347-12.767s12.249 6.357 15.787 10.842c4.876 6.181 11.226 9.329 18.88 1.926 6.889-6.663 10.782-10.139 16.32-10.46s12.028 8.069 16.911 8.535c4.529 0.432 7.846-5.388 12.383-5.739 4.594-0.356 12.122 3.009 15.186 3.605 1.047 0.204 3.2-0.030 3.2-0.030z"></path>
</symbol>
<symbol id="naamio-mask-logo" viewBox="0 0 58 32">
<title>naamio-mask-logo</title>
<path fill="#fff" style="fill: var(--color4, #fff)" d="M1.333 7.711c0.268-0.807 0.853-1.581 2.12-2.234 2.547-1.314 9.37-4.677 9.37-4.677s8.841 2.338 11.676 2.338h9.353c2.835 0 11.718-2.338 11.718-2.338s6.782 3.363 9.329 4.677c1.266 0.653 1.851 1.426 2.12 2.231-0.295 0.312-0.641 0.564-0.993 0.816l0.273 0.38c0.294-0.211 0.59-0.424 0.854-0.668 0.118 0.647 0.086 1.302 0.086 1.918 0 11.69-8.482 21.047-14.031 21.047-5.528 0-11.294-4.643-13.758-4.677h-0.525c-2.464 0.034-8.251 4.677-13.779 4.677-5.549 0-14.031-9.285-14.031-21.047 0-0.616-0.032-1.271 0.086-1.917 0.264 0.242 0.557 0.457 0.85 0.667l0.272-0.38c-0.348-0.249-0.698-0.504-0.989-0.812zM34.466 20.952c0.768-0.593 2.5-1.289 6.403-1.445 3.825-0.152 6.913-3.825 7.016-7.016-3.902-1.227-5.904-1.215-7.016-1.169s-7.016-0.604-7.016 8.184v2.199l-0.199 1.095c-0.057 0.054-0.093 0.13-0.093 0.215 0 0.161 0.131 0.293 0.292 0.293s0.293-0.132 0.293-0.293c0-0.047-0.011-0.091-0.031-0.131l0.351-1.932zM24.5 21.706v-2.199c0-8.789-5.904-8.139-7.016-8.184s-3.113-0.058-7.016 1.169c0.103 3.191 3.191 6.863 7.016 7.016 3.9 0.155 5.633 0.845 6.401 1.435l0.353 1.942c-0.020 0.040-0.031 0.084-0.031 0.131 0 0.161 0.131 0.293 0.293 0.293s0.292-0.132 0.292-0.293c0-0.085-0.036-0.161-0.093-0.215l-0.199-1.095zM49.966 12.028c-0.064-0.176-0.168-0.437-0.168-0.437-0.358 0.13-0.717 0.256-1.077 0.378-0.078 0.026-0.156 0.053-0.234 0.079l0.148 0.443c0.446-0.149 0.89-0.302 1.332-0.464zM8.551 11.592c-0.049-0.018-0.16 0.44-0.16 0.44 0.439 0.16 0.88 0.313 1.324 0.461l0.148-0.443c-0.44-0.147-0.876-0.299-1.312-0.457zM52.583 10.968c-0.064-0.142-0.128-0.284-0.192-0.427l-0.11 0.050c-0.321 0.143-0.644 0.28-0.969 0.415-0.068 0.027-0.135 0.056-0.203 0.083l0.175 0.434 0.076-0.031c0.41-0.168 0.819-0.342 1.224-0.523zM6.011 10.565c-0.018-0.008-0.036-0.016-0.053-0.024l-0.192 0.427 0.111 0.050c0.392 0.175 0.788 0.343 1.188 0.504l0.166-0.438c-0.409-0.167-0.817-0.339-1.22-0.52zM55.102 9.676c-0.079-0.135-0.158-0.269-0.237-0.404l-0.064 0.038c-0.309 0.18-0.622 0.352-0.938 0.518-0.072 0.038-0.144 0.074-0.216 0.112l0.213 0.416 0.034-0.017c0.409-0.21 0.813-0.429 1.209-0.663zM3.512 9.288c-0.009-0.005-0.019-0.010-0.027-0.016l-0.238 0.404 0.028 0.016c0.398 0.233 0.805 0.454 1.216 0.664l0.213-0.416c-0.404-0.206-0.801-0.423-1.192-0.651z"></path>
</symbol>
<symbol id="serverless" viewBox="0 0 32 32">
<title>serverless</title>
<path fill="#1654f0" opacity="0.2" style="fill: var(--color7, #1654f0)" d="M16.175 7.683c-4.056 1.779-7.9-1.881-11.315 1.265-2.955 2.723-3.289 6.674-0.995 9.142 2.664 2.864 6.814 2.317 7.051 4.592 0.546 5.238 7.594 7.47 13.079 3.38s6.356-11.345 5.187-17.114c-1.253-6.187-9.635-2.744-13.008-1.265z"></path>
<path fill="#1654f0" opacity="0.4" style="fill: var(--color7, #1654f0)" d="M15.986 5.71c-3.329 1.46-6.485-1.544-9.288 1.038-2.426 2.235-2.7 5.479-0.816 7.504 2.187 2.351 5.593 1.902 5.788 3.77 0.448 4.299 6.234 6.132 10.736 2.775s5.217-9.312 4.258-14.048c-1.029-5.079-7.909-2.252-10.678-1.038z"></path>
<path fill="#1654f0" style="fill: var(--color7, #1654f0)" d="M22.557 9.536c-1.678 0.736-3.269-0.779-4.683 0.523-1.223 1.127-1.361 2.762-0.412 3.783 1.102 1.185 2.82 0.959 2.918 1.901 0.226 2.168 3.143 3.091 5.413 1.399s2.63-4.695 2.147-7.083c-0.519-2.56-3.988-1.136-5.383-0.523z"></path>
</symbol>
<symbol id="twitter" viewBox="0 0 32 32">
<title>twitter</title>
<path fill="#16f0af" style="fill: var(--color1, #16f0af)" d="M27.93 9.72c0.011 0.27 0.016 0.542 0.016 0.817 0 8.349-6.19 17.977-17.511 17.977-3.478 0-6.71-1.044-9.435-2.84 0.482 0.060 0.971 0.088 1.468 0.088 2.883 0 5.537-1.009 7.645-2.705-2.694-0.048-4.969-1.876-5.752-4.386 0.376 0.075 0.765 0.115 1.16 0.115 0.559 0 1.103-0.078 1.623-0.222-2.817-0.582-4.94-3.137-4.94-6.196 0-0.031 0-0.055 0-0.078 0.831 0.469 1.781 0.756 2.79 0.787-1.654-1.136-2.74-3.067-2.74-5.258 0-1.159 0.302-2.242 0.834-3.177 3.035 3.824 7.572 6.335 12.687 6.604-0.105-0.464-0.159-0.949-0.159-1.443 0-3.489 2.756-6.317 6.155-6.317 1.769 0 3.368 0.769 4.491 1.994 1.404-0.281 2.72-0.807 3.911-1.532-0.462 1.472-1.436 2.712-2.709 3.494 1.246-0.149 2.434-0.491 3.536-0.993-0.827 1.266-1.866 2.379-3.070 3.271z"></path>
</symbol>
</defs>
</svg>
