<!-- Generated by IcoMoon.io -->
<svg version="1.1" xmlns="http://www.w3.org/2000/svg" width="32" height="32" viewBox="0 0 32 32">
<title>twitter</title>
<path fill="#16f0af" d="M27.93 9.72c0.011 0.27 0.016 0.542 0.016 0.817 0 8.349-6.19 17.977-17.511 17.977-3.478 0-6.71-1.044-9.435-2.84 0.482 0.060 0.971 0.088 1.468 0.088 2.883 0 5.537-1.009 7.645-2.705-2.694-0.048-4.969-1.876-5.752-4.386 0.376 0.075 0.765 0.115 1.16 0.115 0.559 0 1.103-0.078 1.623-0.222-2.817-0.582-4.94-3.137-4.94-6.196 0-0.031 0-0.055 0-0.078 0.831 0.469 1.781 0.756 2.79 0.787-1.654-1.136-2.74-3.067-2.74-5.258 0-1.159 0.302-2.242 0.834-3.177 3.035 3.824 7.572 6.335 12.687 6.604-0.105-0.464-0.159-0.949-0.159-1.443 0-3.489 2.756-6.317 6.155-6.317 1.769 0 3.368 0.769 4.491 1.994 1.404-0.281 2.72-0.807 3.911-1.532-0.462 1.472-1.436 2.712-2.709 3.494 1.246-0.149 2.434-0.491 3.536-0.993-0.827 1.266-1.866 2.379-3.070 3.271z"></path>
</svg>
